<mxfile host="app.diagrams.net" modified="2020-12-20T12:02:26.998Z" agent="5.0 (X11; Linux x86_64) AppleWebKit/537.36 (KHTML, like Gecko) Chrome/84.0.4147.105 Safari/537.36" etag="YBoDfH0y7EUf89fAqaBH" version="14.1.1" type="github">
  <diagram id="C5RBs43oDa-KdzZeNtuy" name="Page-1">
    <mxGraphModel dx="1422" dy="5450" grid="1" gridSize="10" guides="1" tooltips="1" connect="1" arrows="1" fold="1" page="1" pageScale="1" pageWidth="3300" pageHeight="4681" math="0" shadow="0">
      <root>
        <mxCell id="WIyWlLk6GJQsqaUBKTNV-0" />
        <mxCell id="WIyWlLk6GJQsqaUBKTNV-1" parent="WIyWlLk6GJQsqaUBKTNV-0" />
        <mxCell id="5iPoH2m3pFX1gwO1DY5G-3" value="" style="edgeStyle=orthogonalEdgeStyle;rounded=0;orthogonalLoop=1;jettySize=auto;html=1;" edge="1" parent="WIyWlLk6GJQsqaUBKTNV-1" source="5iPoH2m3pFX1gwO1DY5G-0" target="5iPoH2m3pFX1gwO1DY5G-2">
          <mxGeometry relative="1" as="geometry" />
        </mxCell>
        <mxCell id="5iPoH2m3pFX1gwO1DY5G-0" value="Komponen, focus ke inputan&lt;br&gt;exmp value = 0" style="shape=parallelogram;perimeter=parallelogramPerimeter;whiteSpace=wrap;html=1;fixedSize=1;fontFamily=Helvetica;fontSize=12;fontColor=#000000;align=center;strokeColor=#6c8ebf;fillColor=#dae8fc;" vertex="1" parent="WIyWlLk6GJQsqaUBKTNV-1">
          <mxGeometry x="40" y="80" width="200" height="40" as="geometry" />
        </mxCell>
        <mxCell id="5iPoH2m3pFX1gwO1DY5G-6" value="" style="edgeStyle=orthogonalEdgeStyle;rounded=0;orthogonalLoop=1;jettySize=auto;html=1;" edge="1" parent="WIyWlLk6GJQsqaUBKTNV-1" source="5iPoH2m3pFX1gwO1DY5G-2" target="5iPoH2m3pFX1gwO1DY5G-5">
          <mxGeometry relative="1" as="geometry">
            <Array as="points">
              <mxPoint x="520" y="220" />
            </Array>
          </mxGeometry>
        </mxCell>
        <mxCell id="5iPoH2m3pFX1gwO1DY5G-2" value="Method, eksekusi&amp;nbsp; mutation SET_INPUTACTIVE + value" style="shape=parallelogram;perimeter=parallelogramPerimeter;whiteSpace=wrap;html=1;fixedSize=1;fontFamily=Helvetica;fontSize=12;fontColor=#000000;align=center;strokeColor=#82b366;fillColor=#d5e8d4;" vertex="1" parent="WIyWlLk6GJQsqaUBKTNV-1">
          <mxGeometry x="160" y="200" width="200" height="40" as="geometry" />
        </mxCell>
        <mxCell id="5iPoH2m3pFX1gwO1DY5G-4" value="&lt;b&gt;&lt;font style=&quot;font-size: 20px&quot;&gt;On Off Inputan&lt;/font&gt;&lt;/b&gt;" style="text;html=1;strokeColor=none;fillColor=none;align=center;verticalAlign=middle;whiteSpace=wrap;rounded=0;" vertex="1" parent="WIyWlLk6GJQsqaUBKTNV-1">
          <mxGeometry x="150" width="200" height="40" as="geometry" />
        </mxCell>
        <mxCell id="5iPoH2m3pFX1gwO1DY5G-10" style="edgeStyle=orthogonalEdgeStyle;rounded=0;orthogonalLoop=1;jettySize=auto;html=1;exitX=0.5;exitY=1;exitDx=0;exitDy=0;" edge="1" parent="WIyWlLk6GJQsqaUBKTNV-1" source="5iPoH2m3pFX1gwO1DY5G-5" target="5iPoH2m3pFX1gwO1DY5G-9">
          <mxGeometry relative="1" as="geometry">
            <Array as="points">
              <mxPoint x="520" y="380" />
            </Array>
          </mxGeometry>
        </mxCell>
        <mxCell id="5iPoH2m3pFX1gwO1DY5G-5" value="Store, inputActive = value" style="shape=parallelogram;perimeter=parallelogramPerimeter;whiteSpace=wrap;html=1;fixedSize=1;fontFamily=Helvetica;fontSize=12;fontColor=#ffffff;align=center;strokeColor=#A50040;fillColor=#d80073;" vertex="1" parent="WIyWlLk6GJQsqaUBKTNV-1">
          <mxGeometry x="440" y="280" width="160" height="40" as="geometry" />
        </mxCell>
        <mxCell id="5iPoH2m3pFX1gwO1DY5G-8" style="edgeStyle=orthogonalEdgeStyle;rounded=0;orthogonalLoop=1;jettySize=auto;html=1;entryX=0.5;entryY=0;entryDx=0;entryDy=0;" edge="1" parent="WIyWlLk6GJQsqaUBKTNV-1" source="5iPoH2m3pFX1gwO1DY5G-7" target="5iPoH2m3pFX1gwO1DY5G-2">
          <mxGeometry relative="1" as="geometry" />
        </mxCell>
        <mxCell id="5iPoH2m3pFX1gwO1DY5G-7" value="Komponen, blur / focusout dari inputan&lt;br&gt;exmp value = null" style="shape=parallelogram;perimeter=parallelogramPerimeter;whiteSpace=wrap;html=1;fixedSize=1;fontFamily=Helvetica;fontSize=12;fontColor=#000000;align=center;strokeColor=#6c8ebf;fillColor=#dae8fc;" vertex="1" parent="WIyWlLk6GJQsqaUBKTNV-1">
          <mxGeometry x="280" y="80" width="200" height="40" as="geometry" />
        </mxCell>
        <mxCell id="5iPoH2m3pFX1gwO1DY5G-13" style="edgeStyle=orthogonalEdgeStyle;rounded=0;orthogonalLoop=1;jettySize=auto;html=1;exitX=0.5;exitY=1;exitDx=0;exitDy=0;entryX=0.5;entryY=0;entryDx=0;entryDy=0;" edge="1" parent="WIyWlLk6GJQsqaUBKTNV-1" source="5iPoH2m3pFX1gwO1DY5G-9" target="5iPoH2m3pFX1gwO1DY5G-12">
          <mxGeometry relative="1" as="geometry" />
        </mxCell>
        <mxCell id="5iPoH2m3pFX1gwO1DY5G-9" value="computed, eksekusi getters getInputActive&lt;span&gt;&amp;nbsp;&lt;/span&gt;" style="shape=parallelogram;perimeter=parallelogramPerimeter;whiteSpace=wrap;html=1;fixedSize=1;fontFamily=Helvetica;fontSize=12;fontColor=#000000;align=center;strokeColor=#82b366;fillColor=#d5e8d4;" vertex="1" parent="WIyWlLk6GJQsqaUBKTNV-1">
          <mxGeometry x="160" y="360" width="200" height="40" as="geometry" />
        </mxCell>
        <mxCell id="5iPoH2m3pFX1gwO1DY5G-15" style="edgeStyle=orthogonalEdgeStyle;rounded=0;orthogonalLoop=1;jettySize=auto;html=1;exitX=0.5;exitY=0;exitDx=0;exitDy=0;" edge="1" parent="WIyWlLk6GJQsqaUBKTNV-1" source="5iPoH2m3pFX1gwO1DY5G-12">
          <mxGeometry relative="1" as="geometry">
            <mxPoint x="260" y="440" as="targetPoint" />
          </mxGeometry>
        </mxCell>
        <mxCell id="5iPoH2m3pFX1gwO1DY5G-16" style="edgeStyle=orthogonalEdgeStyle;rounded=0;orthogonalLoop=1;jettySize=auto;html=1;exitX=1;exitY=0.5;exitDx=0;exitDy=0;entryX=0;entryY=0.5;entryDx=0;entryDy=0;fillColor=#1ba1e2;strokeColor=#006EAF;" edge="1" parent="WIyWlLk6GJQsqaUBKTNV-1" source="5iPoH2m3pFX1gwO1DY5G-12" target="5iPoH2m3pFX1gwO1DY5G-14">
          <mxGeometry relative="1" as="geometry" />
        </mxCell>
        <mxCell id="5iPoH2m3pFX1gwO1DY5G-12" value="urutan komponen = nilai return dari getter" style="rhombus;whiteSpace=wrap;html=1;fillColor=#dae8fc;strokeColor=#6c8ebf;" vertex="1" parent="WIyWlLk6GJQsqaUBKTNV-1">
          <mxGeometry x="177.5" y="440" width="165" height="120" as="geometry" />
        </mxCell>
        <mxCell id="5iPoH2m3pFX1gwO1DY5G-14" value="tambahkan class &quot;input-group-active&quot;" style="shape=parallelogram;perimeter=parallelogramPerimeter;whiteSpace=wrap;html=1;fixedSize=1;fontFamily=Helvetica;fontSize=12;align=center;strokeColor=#6c8ebf;fillColor=#dae8fc;" vertex="1" parent="WIyWlLk6GJQsqaUBKTNV-1">
          <mxGeometry x="400" y="480" width="160" height="40" as="geometry" />
        </mxCell>
        <mxCell id="5iPoH2m3pFX1gwO1DY5G-17" value="TRUE" style="text;html=1;strokeColor=none;fillColor=none;align=center;verticalAlign=middle;whiteSpace=wrap;rounded=0;" vertex="1" parent="WIyWlLk6GJQsqaUBKTNV-1">
          <mxGeometry x="342.5" y="470" width="40" height="20" as="geometry" />
        </mxCell>
        <mxCell id="5iPoH2m3pFX1gwO1DY5G-24" value="&lt;span style=&quot;font-size: 20px&quot;&gt;&lt;b&gt;On Off Sidebar + Sidebar Overlay&lt;/b&gt;&lt;/span&gt;" style="text;html=1;strokeColor=none;fillColor=none;align=center;verticalAlign=middle;whiteSpace=wrap;rounded=0;" vertex="1" parent="WIyWlLk6GJQsqaUBKTNV-1">
          <mxGeometry x="810" width="200" height="40" as="geometry" />
        </mxCell>
        <mxCell id="5iPoH2m3pFX1gwO1DY5G-25" value="inisialisasi &quot;beforeCreate&quot;&lt;br&gt;jalankan mutations SET_WINDOW_WIDTH" style="shape=parallelogram;perimeter=parallelogramPerimeter;whiteSpace=wrap;html=1;fixedSize=1;" vertex="1" parent="WIyWlLk6GJQsqaUBKTNV-1">
          <mxGeometry x="680" y="60" width="200" height="80" as="geometry" />
        </mxCell>
        <mxCell id="5iPoH2m3pFX1gwO1DY5G-27" value="" style="whiteSpace=wrap;html=1;aspect=fixed;fillColor=#d80073;strokeColor=#A50040;fontColor=#ffffff;" vertex="1" parent="WIyWlLk6GJQsqaUBKTNV-1">
          <mxGeometry x="760" y="240" width="410" height="410" as="geometry" />
        </mxCell>
        <mxCell id="5iPoH2m3pFX1gwO1DY5G-31" value="" style="shape=parallelogram;perimeter=parallelogramPerimeter;whiteSpace=wrap;html=1;fixedSize=1;" vertex="1" parent="WIyWlLk6GJQsqaUBKTNV-1">
          <mxGeometry x="770" y="280" width="120" height="60" as="geometry" />
        </mxCell>
      </root>
    </mxGraphModel>
  </diagram>
</mxfile>
